<svg xmlns="http://www.w3.org/2000/svg" viewBox="0 0 24 24" fill="#fff">
  <path d="M12 .5C5.65.5.5 5.67.5 12.02c0 5.1 3.29 9.42 7.86 10.95.58.1.79-.25.79-.56 0-.28-.01-1.02-.02-2-3.2.7-3.88-1.41-3.88-1.41-.53-1.35-1.3-1.71-1.3-1.71-1.06-.73.08-.72.08-.72 1.17.08 1.79 1.2 1.79 1.2 1.04 1.78 2.73 1.27 3.4.97.11-.76.41-1.27.75-1.56-2.56-.29-5.26-1.28-5.26-5.7 0-1.26.45-2.29 1.19-3.1-.12-.3-.52-1.52.11-3.17 0 0 .97-.31 3.18 1.19a11.06 11.06 0 0 1 2.9-.39c.99 0 1.98.13 2.9.39 2.2-1.5 3.17-1.19 3.17-1.19.63 1.65.23 2.87.11 3.17.74.81 1.19 1.84 1.19 3.1 0 4.43-2.7 5.4-5.28 5.68.42.36.8 1.08.8 2.18 0 1.58-.01 2.85-.01 3.24 0 .31.2.67.8.56A10.53 10.53 0 0 0 23.5 12.02C23.5 5.67 18.35.5 12 .5z"/>
</svg>
